<svg width="100" height="100" viewBox="0 0 100 100" fill="none" xmlns="http://www.w3.org/2000/svg">
<path d="M34.2526 11.0122C34.1207 11.063 34.1207 11.0528 30.9245 15.152C29.7475 16.6537 28.1241 18.7338 27.3124 19.7687C26.5006 20.8036 24.7859 22.9953 23.5074 24.639C18.2211 31.4169 13.7769 37.099 10.7329 40.975C8.81521 43.4102 6.51194 46.373 5.7611 47.3572C5.49729 47.7123 5.21318 48.1689 5.14216 48.3718C4.95952 48.8893 4.94937 54.0032 5.13201 54.3684C5.22333 54.5409 6.43077 55.2918 9.21092 56.8848C15.6743 60.5984 21.194 63.7743 24.3293 65.5804C32.548 70.3188 38.6156 73.7991 49.8479 80.2218C65.5649 89.2015 65.3721 89.0899 65.5649 89.0392C65.6562 89.0189 67.1477 88.0854 68.8726 86.9693C70.6077 85.8532 76.2492 82.2207 81.4036 78.9028C93.4273 71.1711 94.6043 70.4101 94.8275 70.2173C94.9899 70.0753 95 69.3143 95 56.9152C95 46.6773 94.9696 43.7146 94.8681 43.5218C94.726 43.2377 95.0203 43.4102 90.5355 41.0054C88.6077 39.9705 86.7306 38.9558 86.3551 38.7529L85.6753 38.3876L85.6449 31.6909L85.6144 24.9942L85.2999 24.3346C84.6505 22.9547 84.7621 23.0257 77.0913 19.028C65.6156 13.0517 65.8693 13.1734 65.3822 13.1734C64.8444 13.1734 64.4284 13.5489 64.256 14.178C64.1748 14.4824 64.1545 16.3696 64.1748 20.692C64.1951 24.1723 64.1646 26.7698 64.1139 26.7698C64.0632 26.7698 62.5412 25.9682 60.7148 24.9739C53.1556 20.8848 46.398 17.2422 38.4837 12.9908C36.3834 11.8645 34.6077 10.9412 34.5266 10.9514C34.4454 10.9514 34.3236 10.9818 34.2526 11.0122ZM34.5773 11.2355C34.5469 11.2963 34.4352 11.3471 34.3439 11.3471C34.1917 11.3369 34.1917 11.3268 34.3642 11.1949C34.5773 11.0325 34.6889 11.063 34.5773 11.2355ZM42.1568 15.1419C63.4848 26.6075 64.256 27.0336 64.256 27.2873C64.256 27.3888 64.2357 27.4801 64.2052 27.4801C64.1748 27.4801 62.8151 26.7597 61.1917 25.8668C54.9008 22.4575 40.026 14.4316 36.8603 12.7473C35.7137 12.1283 34.7396 11.6007 34.6889 11.55C34.5976 11.4587 34.6889 11.2456 34.831 11.2456C34.8817 11.2456 38.1793 13.001 42.1568 15.1419ZM34.2222 11.5196C34.2222 11.5703 33.6844 12.2805 33.0249 13.1227C30.7318 16.0348 27.0486 20.7428 25.6382 22.559C20.9505 28.5861 9.48488 43.258 6.79604 46.6571C6.24813 47.3572 5.75095 47.9355 5.70022 47.9558C5.36538 48.0776 5.50743 47.8848 11.6867 40.0111C12.9956 38.3369 14.7814 36.0539 15.654 34.9378C16.5266 33.8217 18.5559 31.214 20.1692 29.1543C21.7825 27.0844 23.9742 24.2839 25.0395 22.9141C26.1049 21.5443 27.6574 19.5556 28.4894 18.5004C29.3214 17.435 30.7318 15.6391 31.6247 14.4925C32.5074 13.3459 33.4206 12.1994 33.6337 11.9254C34.0091 11.4891 34.2222 11.3369 34.2222 11.5196ZM42.309 15.8521C46.5908 18.1554 53.0034 21.6154 56.5446 23.5331C60.0857 25.4508 63.2514 27.1554 63.566 27.3279L64.1545 27.6323V28.4643C64.1545 28.931 64.124 29.3065 64.0835 29.3065C64.0327 29.3065 63.7486 29.1644 63.4442 28.9919C63.1398 28.8194 61.0192 27.6729 58.7261 26.4451C56.4431 25.2073 52.9933 23.3504 51.0654 22.3053C48.194 20.7428 41.4567 17.1002 37.6213 15.0303C37.1748 14.7969 36.7182 14.594 36.6066 14.594C36.495 14.594 36.1805 14.7056 35.8963 14.8476C35.4499 15.081 35.2876 15.1013 34.5164 15.081C33.4815 15.0506 33.5221 15.0201 32.5175 16.3189C32.1421 16.7958 30.6912 18.6323 29.2808 20.4079C27.8603 22.1836 26.6528 23.7461 26.592 23.8781C26.5006 24.0911 26.5311 24.2433 26.805 24.8318C27.1094 25.4914 27.1196 25.5624 27.008 25.9987C26.9167 26.3843 26.9167 26.506 27.0384 26.6886C27.1297 26.8206 27.8501 27.2873 28.6517 27.7236C29.4533 28.17 30.9347 28.9818 31.9392 29.5398C32.9437 30.0979 36.7081 32.1779 40.3101 34.1565C49.4521 39.1892 50.3247 39.6762 52.8106 41.0663C54.1906 41.8374 55.1139 42.294 55.2965 42.294C55.4487 42.294 55.814 42.152 56.088 41.9896C56.5141 41.736 56.7069 41.6852 57.3056 41.6852C57.7013 41.6852 58.1173 41.6548 58.2492 41.6244C58.3912 41.5838 59.0711 40.8228 60.0248 39.6052C62.6021 36.338 64.1038 34.4913 64.1646 34.4812C64.1951 34.4812 64.2255 35.1407 64.2357 35.9524C64.2458 36.9468 64.2965 37.5353 64.398 37.7687L64.5401 38.1035L63.6776 39.1892C63.2109 39.7878 62.8354 40.3155 62.8557 40.3662C62.876 40.4068 63.2514 39.9705 63.6979 39.4023C64.1443 38.8239 64.5401 38.347 64.5806 38.347C64.6111 38.3369 64.7633 38.5398 64.9053 38.7833C65.4228 39.6661 65.0575 39.4632 79.5367 47.1339C84.2649 49.63 84.3969 49.6909 85.0462 49.3459C85.6347 49.0415 85.6652 48.8589 85.6652 44.993V41.4823L86.9639 42.1621C89.0643 43.2681 89.3585 43.4507 89.5919 43.8059C89.8658 44.2016 89.8963 44.7698 89.6832 45.2873C89.5412 45.612 86.8422 49.2444 85.3912 51.0505C85.0361 51.497 84.752 51.9028 84.752 51.9637C84.7621 52.1159 84.9651 51.8724 86.5581 49.8025C89.4295 46.0686 89.805 45.5308 89.9267 45.0336C90.0688 44.4248 89.9166 43.8465 89.5107 43.4507C89.3484 43.2985 88.4352 42.7608 87.4713 42.2535L85.7159 41.3301L85.6855 40.285C85.6753 39.7168 85.6753 39.2501 85.7058 39.2501C85.7261 39.2501 86.9436 39.8893 88.4149 40.6807C89.8861 41.4722 91.5603 42.3651 92.1387 42.6695C93.133 43.2072 93.2852 43.329 93.0722 43.4609C93.0214 43.4913 91.4386 45.5409 89.5513 48.0065C87.6742 50.4722 84.4882 54.6322 82.4791 57.2602C69.2176 74.5905 64.469 80.8103 64.256 81.1452L64.0936 81.3785L57.0012 77.3301C44.6427 70.2681 38.017 66.4733 28.8952 61.2174C20.9708 56.6616 18.7284 55.3628 12.1534 51.5984C8.75433 49.6503 5.95388 48.0471 5.94373 48.037C5.92344 48.0167 6.45106 47.3369 8.95726 44.1509C9.64722 43.2681 10.7735 41.8374 11.4432 40.975C12.123 40.1125 13.1884 38.7427 13.8276 37.931C14.4668 37.1193 16.6078 34.3797 18.5863 31.8431C20.5649 29.3065 22.9189 26.2929 23.8118 25.1464C24.7047 23.9998 25.7904 22.6097 26.2165 22.0517C26.6427 21.4936 27.7385 20.1035 28.6314 18.957C29.5345 17.8104 31.1883 15.6999 32.3045 14.2591C33.4307 12.8285 34.3845 11.6515 34.4251 11.6515C34.4758 11.6515 38.017 13.5387 42.309 15.8521ZM67.3304 14.2185C68.2334 14.6853 70.7802 16.0043 72.982 17.161C75.1838 18.3076 78.522 20.0427 80.389 21.0167C84.1939 22.9953 84.5288 23.2388 85.0868 24.4158L85.4115 25.0956L85.4419 31.63C85.4622 36.8656 85.4419 38.1847 85.3405 38.2557C85.2492 38.3064 85.2492 38.3369 85.3303 38.3369C85.4825 38.3369 85.5231 47.8949 85.3608 48.4733C85.2187 49.0111 84.9245 49.2444 84.407 49.2343C83.9707 49.2241 83.7576 49.1227 70.8005 42.2332C65.5141 39.4226 65.3924 39.3515 64.8039 38.0934L64.4589 37.3425V25.745C64.469 16.3087 64.4893 14.0968 64.6009 13.8939C64.7633 13.6097 65.1286 13.3865 65.4532 13.3764C65.5851 13.3764 66.4273 13.7619 67.3304 14.2185ZM41.8727 17.4959C44.7238 19.0382 48.4781 21.0675 50.203 22.0111C51.938 22.9446 55.7126 24.9942 58.6145 26.5466C61.5062 28.1092 63.9718 29.4688 64.0835 29.5601C64.2255 29.692 64.256 29.7631 64.1748 29.7935C64.1038 29.8138 63.221 29.3775 62.1962 28.8194C61.1815 28.2614 59.3044 27.2467 58.0158 26.5669C55.7734 25.3696 54.9008 24.8927 49.8479 22.1531C47.7982 21.037 42.5829 18.2163 38.2503 15.8826L36.637 15.0201L36.1196 15.2636C35.6833 15.4666 35.4296 15.5072 34.628 15.5072H33.6641L32.9843 16.3899C32.6089 16.8871 32.0204 17.6481 31.6652 18.0844C31.3101 18.5207 30.2041 19.9209 29.1895 21.1791C26.734 24.2535 26.9268 23.8983 27.2718 24.6593C27.5052 25.187 27.5457 25.3696 27.495 25.8668C27.4443 26.3031 27.4646 26.4756 27.5762 26.5669C27.7284 26.6988 30.4071 28.1802 40.0564 33.4868C43.4048 35.3335 48.194 37.9818 50.7103 39.382L55.2661 41.9186L55.5807 41.736C56.2909 41.3098 56.504 41.2489 57.2954 41.2185C57.7419 41.1982 58.1477 41.1881 58.1883 41.1779C58.2188 41.1779 58.4927 40.8735 58.787 40.488C61.4454 37.1193 64.0835 33.8724 64.1545 33.8724C64.2154 33.8724 64.256 33.9231 64.256 33.984C64.256 34.0449 63.0789 35.5567 61.6483 37.3527C60.2176 39.1486 58.8986 40.8126 58.7159 41.0359L58.3811 41.462L57.4882 41.5026C56.7069 41.533 56.5141 41.5838 56.0271 41.8679C55.7126 42.0505 55.3777 42.1926 55.2864 42.1926C55.1849 42.1926 53.9876 41.5635 52.6077 40.7822C49.7565 39.1791 43.628 35.7901 39.8028 33.6999C36.3935 31.8228 30.5998 28.6266 28.6923 27.5613L27.1703 26.7191L27.2008 26.0291C27.221 25.4406 27.1805 25.258 26.9268 24.7202C26.6833 24.2332 26.6427 24.0607 26.7239 23.9085C26.8253 23.7259 29.1895 20.7225 32.3958 16.7247L33.5728 15.2535L34.6382 15.2028C35.5006 15.1622 35.7644 15.1114 36.0485 14.9288C36.2413 14.7969 36.4646 14.6954 36.5457 14.6954C36.6168 14.6954 39.0113 15.9536 41.8727 17.4959ZM40.5435 17.2929C42.6742 18.4497 46.1139 20.3065 48.1737 21.4226C50.2436 22.5286 53.2571 24.1622 54.8704 25.0449C56.4938 25.9175 59.2436 27.3989 60.9888 28.3425L64.1545 30.037V31.8025V33.568L63.0587 34.9175C62.4499 35.6481 61.1105 37.3324 60.0654 38.6514L58.1782 41.0562L57.2853 41.0967C56.433 41.1373 56.1387 41.2185 55.5299 41.6041C55.2864 41.7563 55.1646 41.6954 50 38.8239C47.0981 37.2106 43.0801 34.9784 41.0711 33.8724C35.6934 30.9198 28.5604 26.9728 28.0429 26.6684L27.5965 26.4045L27.6168 25.7349C27.6371 25.2174 27.5863 24.9637 27.4341 24.6492C27.3124 24.426 27.221 24.1622 27.221 24.0607C27.221 23.8983 27.9617 22.9344 31.2289 18.8555C32.3248 17.4959 33.38 16.1464 33.5728 15.8623C33.7047 15.6796 33.8366 15.6593 34.7092 15.6492C35.5209 15.6492 35.7644 15.6086 36.0993 15.426C36.3225 15.3144 36.5356 15.2129 36.5863 15.2028C36.6269 15.2028 38.4025 16.1464 40.5435 17.2929ZM89.2672 40.4981C91.053 41.4519 92.788 42.3854 93.1127 42.5578C93.6708 42.8622 93.6911 42.8927 93.4882 42.9942C93.2954 43.0956 92.8185 42.8724 89.4701 41.0663C86.4566 39.4429 85.6652 38.9761 85.6652 38.8138C85.6652 38.6717 85.7159 38.6413 85.8478 38.692C85.9391 38.7225 87.4814 39.5342 89.2672 40.4981ZM94.0462 43.329C93.8636 43.4305 93.478 43.3493 93.478 43.2072C93.478 43.0753 93.8129 43.0246 94.0259 43.1362C94.2086 43.2275 94.2086 43.2377 94.0462 43.329ZM94.8377 46.5252C94.9188 50.0054 94.9087 68.2591 94.8275 69.365L94.7768 70.1057L94.0462 70.5725C92.6358 71.4857 78.2886 80.7292 77.1421 81.4597C76.5028 81.8656 74.8997 82.8904 73.5908 83.7427C69.38 86.4721 65.7272 88.8261 65.6054 88.9073C65.5344 88.9479 65.2402 88.8261 64.9155 88.6232L64.3574 88.2579V85.4067C64.3574 83.0629 64.3879 82.4947 64.5096 82.2309C64.6923 81.8554 65.0474 81.3684 69.9887 74.9152C71.9876 72.2872 74.2097 69.3955 74.9098 68.4721C75.6099 67.5488 76.7159 66.108 77.3551 65.276C79.5569 62.4045 82.0834 59.0967 85.5028 54.6221C86.0913 53.8408 87.5727 51.9028 88.7802 50.3098C92.6663 45.196 94.0158 43.4913 94.2289 43.4102C94.3506 43.3696 94.513 43.3696 94.6043 43.4203C94.7463 43.4913 94.7768 43.887 94.8377 46.5252ZM93.5998 43.4913C93.7317 43.5522 93.478 43.9276 92.2706 45.4902C91.4487 46.5454 88.9628 49.8126 86.7306 52.745C82.6009 58.1734 81.6573 59.4113 78.0857 64.0584C75.8839 66.9197 74.5547 68.6649 71.1049 73.1903C69.8771 74.8036 67.9189 77.3808 66.752 78.8926C65.5953 80.4146 64.6111 81.6626 64.5705 81.6626C64.5198 81.6626 64.4284 81.6018 64.3676 81.5206C64.2357 81.3583 63.8704 81.8453 73.4386 69.3346C74.504 67.9344 75.7926 66.2602 76.2898 65.6108C76.7869 64.9614 79.4555 61.471 82.2255 57.8487C84.9854 54.2365 88.3642 49.8126 89.7238 48.0268C92.4837 44.3944 93.2649 43.4102 93.3664 43.4203C93.3968 43.4203 93.4983 43.4507 93.5998 43.4913ZM5.6089 48.2196C5.6089 48.382 5.42626 48.5342 5.33494 48.4429C5.25377 48.3617 5.38567 48.0776 5.50743 48.0776C5.55817 48.0776 5.6089 48.1385 5.6089 48.2196ZM6.07564 48.2704C6.12637 48.3211 7.95275 49.3763 10.1241 50.6142C13.8479 52.745 17.5007 54.8352 31.2289 62.7393C38.1489 66.7269 49.371 73.1598 57.7419 77.9287C61.1511 79.8769 63.9516 81.5003 63.9516 81.5409C63.9516 81.5815 63.911 81.6728 63.8602 81.754C63.7791 81.8757 63.708 81.8859 63.5153 81.7946C63.1601 81.6322 46.0125 71.8306 35.7949 65.9558C18.5255 56.0223 14.822 53.8915 10.2763 51.3042C7.73967 49.8532 5.64948 48.6559 5.62919 48.6356C5.56831 48.5849 5.81183 48.179 5.893 48.179C5.94373 48.179 6.01476 48.2196 6.07564 48.2704ZM5.33494 51.5578C5.34509 53.1508 5.3248 54.4293 5.28421 54.3887C5.09142 54.1858 5.07113 48.4226 5.26392 48.6153C5.29436 48.6356 5.3248 49.9648 5.33494 51.5578ZM8.75433 50.6142C11.088 51.9333 14.5784 53.9321 20.0677 57.0877C23.2943 58.9445 23.3552 58.975 29.0474 62.2523C38.7678 67.8532 43.9324 70.816 53.2469 76.1328C58.6043 79.1869 63.1297 81.7641 63.292 81.8554L63.5964 82.0279L63.6472 84.9806C63.6979 87.9129 63.6979 87.9332 63.495 87.8216C62.3078 87.1925 33.9381 70.9377 18.495 62.0392C16.8513 61.0956 13.2695 59.0358 10.53 57.4631L5.55817 54.6018L5.50743 51.9231C5.47699 50.4519 5.47699 49.143 5.49729 49.0111L5.52773 48.7878L5.95388 49.0212C6.17711 49.1633 7.44542 49.8735 8.75433 50.6142ZM64.4081 82.0584C64.3574 82.2309 64.3067 82.2511 64.1443 82.17C63.9211 82.0482 63.8907 81.8656 64.0733 81.6829C64.256 81.5003 64.4995 81.7743 64.4081 82.0584ZM64.1849 85.2444C64.1951 86.8475 64.1748 88.1564 64.1443 88.1564C64.1038 88.1564 64.0226 88.0854 63.9414 87.9941C63.7994 87.8216 63.7892 87.5274 63.8298 84.321C63.8501 82.3831 63.8704 82.17 64.0124 82.2511C64.1545 82.3323 64.1748 82.7077 64.1849 85.2444Z" fill="#105293"/>
<path d="M26.37 28.2813C26.4817 28.3929 29.3328 29.9758 39.3475 35.4752C40.5245 36.1246 42.361 37.1393 43.4467 37.7481C44.5222 38.3569 45.4354 38.8337 45.4658 38.8033C45.4963 38.7627 45.4963 38.7221 45.476 38.712C45.3745 38.6207 42.3509 36.9465 35.2889 33.0604C31.1085 30.7571 27.4151 28.7176 27.0905 28.535C26.5324 28.2103 26.1468 28.0784 26.37 28.2813Z" fill="#105293"/>
<path d="M22.9187 29.1442C22.6448 29.2254 22.3099 29.408 22.1476 29.5704C21.9852 29.7327 21.001 30.9401 19.9661 32.2491C18.921 33.558 17.0743 35.8917 15.8669 37.4238C14.6493 38.9559 12.7316 41.3505 11.6053 42.7507C10.4182 44.2321 9.49484 45.47 9.39337 45.7237C9.23103 46.1498 9.23103 46.1904 9.45425 46.8702C9.71806 47.682 9.78909 47.7428 11.3922 48.6357C11.9807 48.9604 16.1713 51.3449 20.7068 53.9424C26.5207 57.2603 29.0777 58.6707 29.3618 58.7011C29.9198 58.7823 30.5794 58.4982 31.0461 57.9909C31.2592 57.7575 32.0303 56.8139 32.7507 55.9007C33.4813 54.9875 34.4553 53.7496 34.9221 53.1611C39.7823 47.0427 43.3336 42.5275 43.6278 42.1115C43.7699 41.8883 43.8612 41.6143 43.8612 41.3708C43.8612 40.9548 43.4858 39.9909 43.2423 39.7879C43.1611 39.7271 41.7507 38.9356 40.107 38.0326C38.4632 37.1295 34.1712 34.7553 30.5692 32.7564C26.9672 30.7575 23.8928 29.1036 23.7203 29.0732C23.558 29.0427 23.1927 29.0732 22.9187 29.1442ZM31.2287 33.284C35.196 35.4858 39.4576 37.85 40.7158 38.5399C41.9739 39.2299 43.1002 39.8996 43.2321 40.0315C43.3945 40.1938 43.4553 40.3764 43.4553 40.7113C43.4553 41.2389 43.709 40.8838 39.5895 46.0484C37.9661 48.0878 35.5309 51.1622 34.1712 52.8973C31.4215 56.408 30.6402 57.3618 30.2648 57.6357C30.1228 57.7372 29.7778 57.8488 29.5038 57.8792C29.0168 57.93 28.9356 57.8995 27.7282 57.2096C27.0281 56.8037 25.8003 56.1036 24.9886 55.647C24.1769 55.1803 21.0112 53.3742 17.9368 51.6087C14.8725 49.8533 11.8285 48.1284 11.1893 47.7733C9.7688 46.9818 9.4644 46.7079 9.4644 46.2006C9.4644 45.9976 9.51513 45.7338 9.57601 45.6222C9.63689 45.5005 11.027 43.735 12.6504 41.6955C14.284 39.656 16.9526 36.2874 18.5963 34.2276C20.2299 32.1577 21.7316 30.2705 21.9244 30.027C22.1273 29.7834 22.4723 29.4993 22.6955 29.3877C23.5377 28.992 23.3855 28.921 31.2287 33.284ZM43.7293 41.4418C43.6583 41.8781 43.6684 41.8578 39.3967 47.266C29.93 59.2389 30.8127 58.1633 30.2953 58.3866C29.8184 58.5895 29.1994 58.5591 28.7124 58.3155C28.479 58.1938 25.7801 56.6515 22.7056 54.8962C19.6414 53.1408 15.7553 50.9187 14.0811 49.9751C10.063 47.7023 9.97173 47.6515 9.84997 47.4384C9.79924 47.337 9.7688 47.2254 9.78909 47.2051C9.81953 47.1848 14.1115 49.6098 19.337 52.5929C28.4993 57.8285 28.8545 58.0213 29.3618 58.0213C30.3866 58.0213 29.9604 58.488 36.0484 50.7665C38.8691 47.1949 40.8984 44.638 42.116 43.116C42.6335 42.4666 43.1814 41.7462 43.3336 41.5129C43.6684 40.9852 43.8003 40.9649 43.7293 41.4418Z" fill="#105293"/>
<path d="M23.0005 32.0058C22.7468 32.2797 20.3319 35.2831 17.6228 38.6923C12.8438 44.689 12.4988 45.1658 12.7727 45.4398C13.0467 45.7036 29.129 54.7949 29.3218 54.7949C29.4537 54.7949 29.6464 54.734 29.7581 54.663C29.8595 54.5818 31.4424 52.6236 33.2586 50.3101C35.0748 47.9967 37.3781 45.0847 38.3623 43.8366C39.3465 42.5886 40.1989 41.4624 40.2597 41.3203C40.3206 41.1478 40.3206 41.0058 40.2496 40.8941C40.1887 40.8028 38.6566 39.8998 36.8505 38.8851C26.4909 33.1117 23.8426 31.6506 23.66 31.5898C23.4875 31.5289 23.3454 31.6202 23.0005 32.0058ZM23.6803 32.0159C23.7614 32.2493 23.7412 32.3203 23.5281 32.4928C23.3962 32.6146 21.0219 35.5469 18.2519 39.017C15.4819 42.4872 13.1583 45.3586 13.0974 45.3992C12.9655 45.4804 12.8032 45.2369 12.8438 45.0339C12.8843 44.8919 14.244 43.167 21.2147 34.4511C22.4018 32.9595 23.4266 31.742 23.4773 31.742C23.5281 31.742 23.6194 31.8637 23.6803 32.0159ZM27.6374 33.9336C29.616 35.0294 33.076 36.9573 35.3387 38.2155C37.6013 39.4635 39.6205 40.5999 39.8336 40.7318C40.1887 40.9652 40.3409 41.2797 40.0974 41.2797C40.0365 41.2797 38.342 40.3564 36.3229 39.2301C34.3037 38.1038 30.7321 36.1253 28.3883 34.8265C26.0444 33.5176 24.076 32.4218 24.005 32.3812C23.9441 32.3305 23.8629 32.1884 23.8223 32.0565C23.7614 31.8637 23.7817 31.8231 23.9035 31.8739C23.9847 31.9043 25.669 32.8276 27.6374 33.9336ZM25.5168 33.406C26.3691 33.8727 28.2361 34.9077 29.6566 35.6991C31.0771 36.5007 33.6848 37.9415 35.4401 38.9257C37.1955 39.8998 38.9407 40.8739 39.3262 41.0971L40.0162 41.4928L39.8031 41.7668C39.6915 41.919 39.0726 42.7002 38.4334 43.512C37.784 44.3237 36.5461 45.8964 35.6735 47.0125C32.1729 51.477 29.8291 54.4296 29.6769 54.5413C29.5856 54.6123 29.4435 54.6732 29.3522 54.6732C29.1594 54.6732 13.3917 45.6833 13.3409 45.5413C13.3105 45.4499 23.2643 32.919 23.5484 32.6754C23.6397 32.6146 23.7716 32.5537 23.8426 32.5537C23.9136 32.5537 24.6645 32.9393 25.5168 33.406Z" fill="#105293"/>
<path d="M37.7333 45.6124C37.4187 45.9878 37.1752 46.343 37.1955 46.4039C37.2361 46.5155 37.855 46.9619 37.9768 46.9619C38.129 46.9619 39.306 45.5414 39.2451 45.4399C39.1842 45.3486 38.4537 44.9326 38.3421 44.9326C38.3218 44.9326 38.0377 45.237 37.7333 45.6124ZM38.7987 45.308C38.961 45.4095 39.0929 45.511 39.0929 45.5414C39.0828 45.5718 38.8393 45.8661 38.5349 46.2009L37.9869 46.8097L37.7028 46.6372C37.5506 46.5459 37.4187 46.4241 37.4187 46.3633C37.4187 46.2111 38.2711 45.1355 38.403 45.1355C38.4537 45.1355 38.6363 45.2167 38.7987 45.308Z" fill="#105293"/>
<path d="M13.2997 47.205C13.1374 47.3978 13.0156 47.621 13.0156 47.6921C13.0156 47.8341 14.2332 48.585 14.4767 48.585C14.6188 48.585 15.2479 47.9051 15.2479 47.7529C15.2479 47.6515 13.8781 46.86 13.7056 46.86C13.6346 46.86 13.4519 47.0224 13.2997 47.205ZM14.426 47.3775C14.7405 47.55 15.0145 47.7124 15.0348 47.7327C15.0551 47.7529 14.9536 47.9254 14.8014 48.1284L14.5275 48.4936L13.9491 48.169C13.0562 47.6718 13.0664 47.6819 13.3809 47.3471C13.5331 47.1949 13.7056 47.063 13.7665 47.063C13.8172 47.063 14.1115 47.205 14.426 47.3775Z" fill="#105293"/>
<path d="M35.7643 48.0469L35.2266 48.7369L35.531 49.0108C35.7035 49.1732 35.9368 49.2949 36.0383 49.2949C36.16 49.2949 36.4644 49.021 36.8094 48.605L37.3776 47.9251L37.0428 47.641C36.5456 47.225 36.3731 47.2758 35.7643 48.0469ZM36.8399 47.6715C37.2254 47.9048 37.2457 47.8237 36.5152 48.7064C36.1296 49.1732 36.1195 49.1833 35.8354 49.0413C35.6832 48.9601 35.531 48.8485 35.4904 48.7977C35.4396 48.6963 36.3224 47.4685 36.4441 47.4685C36.4746 47.4685 36.6572 47.5599 36.8399 47.6715Z" fill="#105293"/>
<path d="M15.7047 48.5438C15.512 48.7569 15.3496 48.9801 15.3496 49.0512C15.3496 49.1729 15.5931 49.3454 16.4556 49.8121L16.8919 50.0557L17.2369 49.6498C17.734 49.0613 17.7645 49.1222 16.6382 48.4829L16.0599 48.1583L15.7047 48.5438ZM16.7803 48.7468C17.105 48.9497 17.3789 49.1526 17.3789 49.1831C17.3688 49.2135 17.2572 49.3758 17.1253 49.5483L16.8716 49.8527L16.4251 49.6092C16.1816 49.4672 15.8772 49.2845 15.7453 49.1831L15.5221 49.0207L15.7453 48.696C15.8671 48.5235 16.0193 48.3815 16.0802 48.3815C16.1309 48.3815 16.4556 48.5438 16.7803 48.7468Z" fill="#105293"/>
<path d="M18.048 49.9138C17.9059 50.0863 17.7842 50.2994 17.7842 50.4009C17.7842 50.5835 18.9409 51.3242 19.2351 51.3242C19.3873 51.3242 20.0164 50.6545 20.0164 50.4922C20.0164 50.3907 18.6466 49.5993 18.464 49.5993C18.3727 49.5993 18.19 49.7414 18.048 49.9138ZM19.1641 50.1168C19.4584 50.2791 19.7323 50.4618 19.7526 50.5023C19.783 50.5429 19.6816 50.7357 19.5192 50.9184L19.2351 51.2633L18.5858 50.8676C18.2306 50.6545 17.9161 50.4618 17.8958 50.4516C17.8146 50.3806 18.3219 49.8022 18.464 49.8022C18.5553 49.8022 18.8699 49.9443 19.1641 50.1168Z" fill="#105293"/>
<path d="M34.4663 49.7924C34.4155 49.8228 34.1314 50.1577 33.8372 50.5331L33.3096 51.2028L33.5734 51.4159C34.0706 51.8014 34.2329 51.7913 34.6083 51.3651C34.8011 51.1419 35.0751 50.8172 35.207 50.6346C35.4606 50.32 35.4606 50.2997 35.2881 50.1069C35.0852 49.8837 34.5982 49.6909 34.4663 49.7924ZM34.933 50.0562C35.1055 50.1475 35.2374 50.249 35.2374 50.2896C35.2374 50.3302 35.004 50.6447 34.7098 50.9897C34.172 51.6391 34.1517 51.6492 33.685 51.3042C33.5024 51.1723 33.5226 51.1216 34.03 50.5331C34.3242 50.1881 34.5779 49.904 34.5982 49.904C34.6185 49.904 34.7707 49.975 34.933 50.0562Z" fill="#105293"/>
<path d="M20.4429 51.355C20.2602 51.5377 20.1182 51.7406 20.1182 51.8116C20.1182 51.9232 21.4372 52.7451 21.6199 52.7451C21.7416 52.7451 22.3504 52.0044 22.3504 51.8522C22.3504 51.7406 21.0922 51.0202 20.8994 51.0202C20.8284 51.0202 20.6255 51.1724 20.4429 51.355ZM21.5082 51.4768C21.8532 51.6797 22.1475 51.8725 22.1475 51.9131C22.1475 51.9537 22.0359 52.116 21.904 52.2885L21.6604 52.5929L21.0821 52.2885C20.3211 51.8827 20.2805 51.8319 20.5545 51.4464C20.6762 51.2739 20.798 51.1217 20.8183 51.1217C20.8386 51.1217 21.1531 51.284 21.5082 51.4768Z" fill="#105293"/>
<path d="M22.8989 52.6128C22.7568 52.7752 22.5945 52.9781 22.5438 53.0694C22.4423 53.2521 22.4525 53.2622 23.599 53.9522L23.9846 54.1855L24.3803 53.7594C24.6948 53.4144 24.7557 53.2927 24.6644 53.181C24.5528 53.039 23.3555 52.3389 23.2236 52.3389C23.183 52.3389 23.041 52.4606 22.8989 52.6128ZM23.9034 52.8563C24.218 53.0288 24.5021 53.1912 24.5223 53.2318C24.5426 53.2724 24.4412 53.4651 24.289 53.6478L24.0049 53.9928L23.3555 53.6072C23.0004 53.3941 22.6858 53.2013 22.6655 53.181C22.6148 53.1405 23.1729 52.5418 23.2642 52.5418C23.3048 52.5418 23.5889 52.6839 23.9034 52.8563Z" fill="#105293"/>
<path d="M25.2022 54.0131C25.0297 54.2161 24.8877 54.4393 24.8877 54.5205C24.8877 54.6524 26.1763 55.4844 26.3894 55.4844C26.5314 55.4844 27.1199 54.7944 27.1199 54.6321C27.1199 54.5205 25.7502 53.658 25.5777 53.658C25.5472 53.658 25.3747 53.8203 25.2022 54.0131ZM26.2981 54.1958C26.6025 54.3784 26.8663 54.5813 26.8866 54.6422C26.9069 54.7031 26.8155 54.8857 26.6735 55.0379L26.4198 55.3322L25.7502 54.977C25.3747 54.7843 25.0602 54.5915 25.0297 54.5509C24.9689 54.4596 25.4863 53.8609 25.6284 53.8609C25.6994 53.8711 25.9937 54.0131 26.2981 54.1958Z" fill="#105293"/>
<path d="M47.5144 40.579C46.4389 40.7921 46.3476 40.8834 43.3848 44.6782C41.8628 46.6365 40.2596 48.6861 39.8335 49.2442C39.0928 50.198 37.7027 51.9635 33.9383 56.6816C33.086 57.7673 32.2844 58.8022 32.183 58.9849C31.8076 59.614 31.9395 60.791 32.4366 61.2577C32.6193 61.4302 36.6678 63.774 38.8898 64.9916C39.2754 65.2047 39.4479 65.2351 40.006 65.1946C40.767 65.1438 41.599 64.8191 41.9642 64.4336C42.2991 64.0683 45.7692 59.6444 48.4783 56.0931C49.0973 55.2814 51.0048 52.8158 52.7094 50.6038C54.4039 48.3919 55.8346 46.4742 55.865 46.3423C55.9969 45.8654 55.936 45.1247 55.7331 44.729C55.5099 44.2927 55.2461 44.0796 54.4141 43.6636C54.1097 43.5114 52.7196 42.7504 51.3194 41.9793C48.6508 40.508 48.3667 40.3964 47.5144 40.579ZM50.9642 41.9488C52.1615 42.6185 53.6328 43.4404 54.2416 43.765C55.3881 44.3941 55.6519 44.6579 55.7838 45.3378C55.936 46.1596 55.8549 46.2814 51.9687 51.3242C44.6429 60.8315 41.8628 64.3625 41.5279 64.5959C41.1018 64.88 40.5031 65.0424 39.8436 65.0525C39.3667 65.0626 39.1537 64.9612 36.2923 63.3479C34.6283 62.4144 33.086 61.5317 32.8729 61.3997C32.1728 60.9634 31.8887 59.8778 32.2743 59.1371C32.4366 58.8225 34.3036 56.3975 34.3848 56.3975C34.3949 56.3975 34.3645 56.5395 34.3036 56.7019C34.2529 56.8744 34.2326 57.1991 34.263 57.4426C34.3036 57.676 34.3645 58.1427 34.4051 58.4775C34.4964 59.2284 34.7602 59.7053 35.3183 60.101C35.6734 60.3445 35.8763 60.4054 36.4648 60.4358C37.0635 60.4764 37.2461 60.446 37.723 60.2126C38.7681 59.6951 39.5189 58.5486 39.3566 57.6861C39.2653 57.2194 38.7681 56.4584 38.413 56.2453C38.2506 56.154 38.0274 55.9409 37.9158 55.7786C37.6926 55.4437 37.033 55.0784 36.6272 55.0784C36.2619 55.0784 35.4502 55.3625 35.095 55.6162C34.9225 55.738 35.4299 55.0379 36.2112 54.0638C37.8143 52.0649 42.9688 45.49 44.5719 43.4099C46.2055 41.2791 46.2664 41.2183 46.6722 41.0255C47.2405 40.7515 47.6057 40.6805 48.2247 40.7109C48.7219 40.7312 49.006 40.8631 50.9642 41.9488ZM37.2664 55.4336C37.7128 55.6669 37.9767 56.0627 37.9767 56.5193C37.9767 57.6455 36.7286 58.6602 35.5415 58.4978C34.9936 58.4268 34.6384 58.1833 34.4558 57.747C34.2732 57.2904 34.3442 56.8744 34.7196 56.2757C35.2371 55.464 36.5054 55.0379 37.2664 55.4336ZM38.8391 56.9048C39.0522 57.3107 39.0319 58.0514 38.7985 58.5181C37.9868 60.1111 35.4299 60.4967 34.7298 59.1371C34.3543 58.3964 34.5065 58.1833 34.9631 58.8428C35.5719 59.7154 36.5561 59.9082 37.5505 59.3299C38.5652 58.7515 38.9203 57.7977 38.484 56.8237C38.2912 56.3975 38.2912 56.3975 38.484 56.499C38.5956 56.5598 38.7579 56.7425 38.8391 56.9048ZM38.484 57.6354C38.484 58.1529 38.3521 58.4471 37.9158 58.8733C37.4592 59.3197 36.6475 59.6038 36.1097 59.5023C35.7749 59.4415 34.8312 58.7008 34.9428 58.5892C34.9733 58.5587 35.1661 58.579 35.3893 58.6297C35.8256 58.7312 36.4851 58.6196 36.9519 58.3761C37.3679 58.1731 37.9361 57.4933 38.0781 57.0469L38.21 56.6512L38.3419 56.9556C38.413 57.1179 38.4738 57.4324 38.484 57.6354ZM39.0015 58.8022C38.555 59.685 37.5708 60.2938 36.6069 60.2938C36.272 60.2938 35.9169 60.2532 35.8256 60.2025C35.7038 60.1314 35.8662 60.101 36.3836 60.101C36.962 60.101 37.2157 60.0503 37.6012 59.8473C38.2202 59.5429 38.971 58.7414 39.0623 58.305C39.1232 58.0412 39.1435 58.0209 39.1739 58.1934C39.1942 58.3152 39.1131 58.5892 39.0015 58.8022Z" fill="#105293"/>
<path d="M46.7531 42.5274C45.8298 43.7348 45.8298 43.7754 47.1082 44.4857C47.6359 44.7799 48.1229 45.0234 48.1736 45.0234C48.2345 45.0234 48.6099 44.5871 49.0158 44.0595C49.9696 42.8318 49.9594 42.8013 48.7114 42.1012C48.2041 41.8171 47.7069 41.5838 47.6257 41.5939C47.5344 41.5939 47.1387 42.0201 46.7531 42.5274ZM48.9346 42.4056C49.1883 42.5375 49.4115 42.6593 49.4318 42.6694C49.4521 42.6796 48.5389 43.8769 48.1128 44.3639C48.0417 44.4451 46.2965 43.5522 46.2965 43.4304C46.2965 43.3898 46.6009 42.984 46.9662 42.5172L47.6257 41.6751L48.0519 41.9186C48.2852 42.0505 48.681 42.2737 48.9346 42.4056ZM48.9752 43.8464C48.2244 44.7901 48.2345 44.7799 48.1635 44.6987C48.133 44.6683 48.407 44.2422 48.7926 43.7653C49.1781 43.2782 49.5028 42.9332 49.5231 42.9941C49.5434 43.0652 49.2999 43.4406 48.9752 43.8464ZM47.23 44.1914C48.2548 44.8104 48.1229 44.8814 47.0677 44.2827C46.1951 43.7856 46.1037 43.7145 46.2864 43.7145C46.3675 43.7145 46.7836 43.9276 47.23 44.1914Z" fill="#105293"/>
<path d="M50.5991 44.4955C50.2237 44.9927 49.8787 45.4391 49.8178 45.5101C49.625 45.7739 49.8787 46.0377 50.8426 46.5654C51.3804 46.8698 51.8573 47.1133 51.8979 47.1133C51.9892 47.1133 53.501 45.2057 53.501 45.0738C53.501 44.8506 53.2169 44.6274 52.2936 44.1302C51.766 43.8461 51.3297 43.6127 51.3094 43.6127C51.2992 43.6127 50.9745 44.0084 50.5991 44.4955ZM52.2733 44.3027L53.1763 44.7796L52.4661 45.6725C52.0805 46.1595 51.7355 46.5451 51.6949 46.5248C51.6543 46.4943 51.2485 46.2711 50.7919 46.0073L49.97 45.5304L50.6397 44.6781C51.0151 44.2114 51.3297 43.8157 51.3398 43.8157C51.3601 43.8157 51.7761 44.0287 52.2733 44.3027ZM53.2981 45.0941C53.2981 45.1854 52.1921 46.6262 51.9993 46.7784C51.6949 47.022 51.9486 46.5857 52.5574 45.7942C53.085 45.1043 53.2981 44.9115 53.2981 45.0941ZM50.9136 46.261C51.4007 46.5451 51.766 46.7987 51.7457 46.8292C51.6848 46.8799 50.2744 46.0986 50.0512 45.8855C49.7874 45.6319 50.0207 45.7334 50.9136 46.261Z" fill="#105293"/>
<path d="M44.7535 45.2064C43.7896 46.4341 43.7997 46.4848 45.1086 47.2052L46.1436 47.7734L46.377 47.4995C47.3409 46.3225 47.7265 45.734 47.6656 45.5513C47.6047 45.3484 45.829 44.3135 45.5652 44.3338C45.4942 44.3338 45.1289 44.7295 44.7535 45.2064ZM46.448 44.902C46.9249 45.1759 47.3104 45.4093 47.3104 45.4397C47.3104 45.4702 47.006 45.8659 46.6408 46.3326L45.9711 47.1646L45.6464 46.982C45.4739 46.8704 45.0681 46.637 44.7535 46.4645L44.165 46.1398L44.7231 45.4803C45.0275 45.1252 45.342 44.7396 45.4029 44.628C45.4739 44.5164 45.5449 44.4251 45.5551 44.4251C45.5754 44.4251 45.9711 44.6382 46.448 44.902ZM46.9655 46.495C46.3567 47.2965 46.0929 47.5604 46.0929 47.3879C46.0929 47.2763 46.7524 46.3935 47.1887 45.9268C47.6757 45.3991 47.5438 45.7441 46.9655 46.495ZM45.0681 46.8095C45.8189 47.2357 46.2755 47.6009 45.8493 47.4386C45.5449 47.3168 44.2766 46.5559 44.2157 46.4544C44.1143 46.292 44.2056 46.3326 45.0681 46.8095Z" fill="#105293"/>
<path d="M48.4372 47.2958C48.0415 47.8235 47.7168 48.3105 47.7168 48.4018C47.7168 48.6149 47.9502 48.7975 48.9648 49.3454C49.4721 49.6194 49.8983 49.7919 49.949 49.7412C49.9998 49.6904 50.3549 49.244 50.7405 48.7468C51.2985 48.0365 51.4304 47.793 51.3797 47.6307C51.2985 47.4379 49.5229 46.3522 49.2794 46.3522C49.2185 46.3522 48.8431 46.7784 48.4372 47.2958ZM50.9535 47.4176C51.0652 47.5292 50.9738 47.6916 50.4564 48.3409C50.1114 48.7874 49.7867 49.1628 49.736 49.173C49.6649 49.2034 48.1227 48.3815 47.9299 48.2192C47.9096 48.1989 48.1024 47.9452 48.3459 47.651C48.5995 47.3567 48.9039 46.961 49.0257 46.7885L49.2489 46.4537L50.0302 46.8798C50.4564 47.1031 50.8724 47.3567 50.9535 47.4176ZM50.6491 48.625C50.0404 49.4368 49.8476 49.6194 49.8476 49.4063C49.8476 49.2744 51.1869 47.651 51.2478 47.7119C51.2681 47.7423 51.0043 48.1482 50.6491 48.625ZM49.0156 49.0208C49.4316 49.2541 49.7157 49.4571 49.6649 49.4774C49.5533 49.5078 48.143 48.7468 47.9705 48.5642C47.798 48.3815 48.214 48.554 49.0156 49.0208Z" fill="#105293"/>
<path d="M42.6941 47.8847C41.72 49.1327 41.7302 49.1835 42.9478 49.8633C43.4754 50.1677 43.9624 50.4112 44.0132 50.4011C44.1045 50.4011 44.3886 50.0764 45.3627 48.8283C45.5757 48.5645 45.6671 48.3515 45.6265 48.25C45.5656 48.0876 43.6885 46.9614 43.4957 46.9614C43.445 46.9614 43.0898 47.3774 42.6941 47.8847ZM44.3683 47.5803C44.7843 47.8035 45.1597 48.0268 45.2003 48.0572C45.2409 48.0978 44.9669 48.5239 44.5915 49.0008L43.9016 49.8734L43.0188 49.3661L42.1361 48.8689L42.3085 48.6356C42.41 48.5037 42.6941 48.1282 42.9478 47.7934C43.2014 47.4484 43.4551 47.1745 43.5058 47.1745C43.5667 47.1643 43.9523 47.3571 44.3683 47.5803ZM44.9365 49.1327C44.3277 49.9343 44.0639 50.1981 44.0639 50.0256C44.0639 49.914 44.7234 49.0313 45.1597 48.5645C45.6468 48.0369 45.5149 48.3819 44.9365 49.1327ZM43.0594 49.5589C43.5058 49.8227 43.8508 50.0459 43.8204 50.0764C43.7696 50.1271 42.9985 49.7415 42.3897 49.356C41.6795 48.9095 42.2071 49.0719 43.0594 49.5589Z" fill="#105293"/>
<path d="M46.4079 50.0054C45.9919 50.533 45.6875 51.0099 45.6875 51.1418C45.6875 51.4056 45.7078 51.4157 46.9254 52.0753L47.7878 52.542L48.5691 51.5781C49.1069 50.9084 49.3403 50.533 49.32 50.3909C49.2997 50.2286 49.0257 50.0155 48.3357 49.6299C47.8183 49.3357 47.3312 49.0922 47.2501 49.0922C47.179 49.0922 46.8036 49.498 46.4079 50.0054ZM49.0156 50.1677C49.046 50.188 47.9603 51.6085 47.7168 51.8723C47.6559 51.9332 46.1948 51.2026 45.9107 50.9693C45.8904 50.949 46.1847 50.5431 46.5601 50.0662L47.2399 49.2038L48.1125 49.6705C48.5894 49.9242 48.9953 50.1474 49.0156 50.1677ZM49.2388 50.4518C49.2388 50.4924 48.1125 51.9535 47.9096 52.1767C47.8487 52.2376 47.8183 52.2173 47.8183 52.126C47.8183 51.9636 49.0257 50.4112 49.1576 50.4112C49.1982 50.4112 49.2388 50.4315 49.2388 50.4518ZM47.5646 52.1463C47.7777 52.3492 47.4226 52.2173 46.7123 51.8013C46.2963 51.5679 45.9412 51.3143 45.9107 51.2432C45.8701 51.1215 47.3312 51.9231 47.5646 52.1463Z" fill="#105293"/>
<path d="M40.2291 51.1317C39.2145 52.4 39.2246 52.4508 40.5132 53.1204C41.0713 53.4147 41.5482 53.6582 41.5786 53.6582C41.6801 53.6582 43.1513 51.7405 43.1513 51.5985C43.1513 51.5173 43.0701 51.3854 42.9687 51.2941C42.7759 51.1216 41.1626 50.2084 41.0408 50.2084C41.0002 50.2084 40.635 50.6244 40.2291 51.1317ZM41.9845 50.878L42.8266 51.3549L42.157 52.1971C41.7917 52.6638 41.4568 53.0494 41.4163 53.0494C41.2742 53.0494 39.6913 52.1159 39.7218 52.0449C39.803 51.8623 40.98 50.4215 41.051 50.4113C41.1017 50.4113 41.5177 50.6244 41.9845 50.878ZM42.4715 52.3493C42.2077 52.6943 41.9033 53.0697 41.812 53.1915C41.7207 53.3031 41.6192 53.3741 41.5887 53.3437C41.5482 53.3132 41.8323 52.8769 42.2077 52.3899C42.5831 51.9029 42.9078 51.5477 42.9281 51.6086C42.9484 51.6796 42.7455 52.0043 42.4715 52.3493ZM40.5842 52.8059C41.0611 53.0596 41.4163 53.2929 41.3858 53.3234C41.3351 53.3741 39.8334 52.603 39.6609 52.4305C39.4478 52.2275 39.7725 52.3594 40.5842 52.8059Z" fill="#105293"/>
<path d="M43.9934 53.1509C42.9585 54.4293 42.9686 54.4902 44.2573 55.1599C44.8052 55.4541 45.2922 55.6875 45.3429 55.6875C45.3937 55.6875 45.5459 55.5252 45.6879 55.3425C45.83 55.1497 46.1648 54.7134 46.4388 54.3684C47.0678 53.5669 47.0273 53.4654 45.7691 52.7653C45.2313 52.4812 44.7849 52.2377 44.7646 52.2377C44.7443 52.2377 44.3892 52.6537 43.9934 53.1509ZM45.7082 52.9276L46.5808 53.4147L45.8807 54.2873L45.1806 55.17L44.3892 54.7033C43.963 54.4496 43.5673 54.2163 43.5267 54.1757C43.4658 54.1148 44.7037 52.4406 44.8153 52.4406C44.8255 52.4406 45.2313 52.6638 45.7082 52.9276ZM46.7026 53.7394C46.7026 53.851 45.4951 55.3222 45.3632 55.373C45.1907 55.4338 45.3023 55.2613 45.9416 54.4395C46.5098 53.7191 46.7026 53.5466 46.7026 53.7394ZM44.1964 54.7845C45.2212 55.3628 45.4038 55.6063 44.4196 55.0889C43.6688 54.6931 43.202 54.3684 43.3846 54.3684C43.4252 54.3684 43.7905 54.5511 44.1964 54.7845Z" fill="#105293"/>
<path d="M40.2588 58.9144C39.4268 59.3 39.0412 60.0914 39.2948 60.8626C39.7311 62.1816 41.4764 62.3034 42.3185 61.0655C42.6026 60.6394 42.6026 60.1117 42.3084 59.6044C41.8619 58.813 41.0502 58.539 40.2588 58.9144ZM41.9025 59.2797C42.8258 60.3553 40.8067 61.928 39.7007 60.9945C39.3963 60.7408 39.376 60.6901 39.4166 60.2335C39.5079 59.3812 40.1269 58.9043 41.0603 58.9652C41.5575 58.9956 41.6996 59.0464 41.9025 59.2797ZM42.4098 60.406C42.2373 61.4714 40.9183 62.1106 40.0355 61.5728C39.5992 61.309 39.6094 61.2786 40.0863 61.4004C40.2994 61.4511 40.6342 61.4714 40.8371 61.4308C41.3546 61.3395 41.9938 60.8423 42.146 60.4161C42.3185 59.9494 42.4809 59.9494 42.4098 60.406Z" fill="#105293"/>
<path d="M40.4621 59.1779C40.0461 59.3605 39.5996 59.8983 39.5996 60.223C39.5996 60.365 39.7315 60.5984 39.8939 60.7709C40.2591 61.126 40.6549 61.1564 41.2332 60.852C42.0348 60.4462 42.1058 59.4924 41.3651 59.1779C40.9592 59.0054 40.8578 59.0054 40.4621 59.1779ZM41.5275 59.4417C41.9029 59.8171 41.7101 60.4665 41.152 60.7506C40.8273 60.9129 40.1983 60.8825 39.9852 60.6897C39.7721 60.5071 39.7417 59.9794 39.9344 59.7461C40.3403 59.2184 41.152 59.0662 41.5275 59.4417Z" fill="#105293"/>
<path d="M35.4189 55.8799C34.5361 56.4379 34.4042 57.554 35.1754 58.0309C35.632 58.3252 36.4132 58.2541 36.9104 57.8787C37.5902 57.3511 37.8236 56.7322 37.5496 56.1437C37.2655 55.5146 36.2002 55.3827 35.4189 55.8799ZM37.0017 55.8291C37.9454 56.2248 37.4888 57.6251 36.3016 58.0208C35.1551 58.3962 34.3738 57.2293 35.1551 56.3364C35.703 55.7175 36.3219 55.545 37.0017 55.8291Z" fill="#105293"/>
<path d="M61.5069 42.933C60.7865 43.207 60.3908 43.5418 59.6704 44.5057C58.6862 45.8451 51.1067 55.7379 49.2803 58.0716C47.0176 60.9533 43.7606 65.2148 43.4461 65.6816C43.2431 65.9758 43.0503 66.3817 43.0098 66.5846C42.9184 67.0716 43.1011 67.7007 43.4359 68.066C43.5881 68.2385 46.7437 70.0649 50.7617 72.3073C54.6377 74.4685 58.8688 76.8326 60.1473 77.5632L62.481 78.8721L63.1405 78.8619C63.9827 78.8518 64.6422 78.5474 65.1698 77.9183C65.393 77.6646 66.5193 76.1934 67.6862 74.6613C69.7256 71.9623 71.0345 70.2475 74.2916 65.986C76.5035 63.0942 80.3795 58.0209 81.4753 56.5902C82.6828 54.9972 82.8147 54.5001 82.2972 53.5564C82.0638 53.1303 81.8 52.9578 79.5779 51.7808C78.6546 51.2938 76.2397 49.995 74.2002 48.889C63.4855 43.0953 63.039 42.862 62.4302 42.8315C62.1259 42.8112 61.7098 42.862 61.5069 42.933ZM69.6647 46.6263C73.3581 48.6151 77.5689 50.8777 79.0199 51.659C80.4708 52.4302 81.7696 53.1709 81.9015 53.2825C82.2059 53.5666 82.4189 54.0638 82.4189 54.5001C82.4189 55.0175 82.074 55.5959 80.7346 57.3107C80.0649 58.1731 78.9184 59.6545 78.198 60.6083C76.7064 62.5564 75.915 63.6015 71.7651 69.0299C70.1416 71.1505 67.95 74.0322 66.8947 75.4425C65.8395 76.8428 64.8553 78.0806 64.7132 78.1923C64.2363 78.5677 63.6072 78.7503 62.968 78.6996C62.4302 78.6488 62.0853 78.4764 58.879 76.6703C56.9511 75.5846 52.8925 73.3118 49.8485 71.6173C46.8046 69.933 44.1462 68.4313 43.9331 68.2994C43.3953 67.9645 43.1518 67.5181 43.1518 66.889C43.1518 66.2295 43.162 66.2193 45.9015 62.6883C48.5295 59.2892 50.2341 57.0976 51.472 55.4843C56.941 48.3614 58.3006 46.5858 59.366 45.1754C60.4415 43.7346 60.6647 43.5012 61.1315 43.2678C61.5374 43.0649 61.8113 43.004 62.3085 43.004H62.9579L69.6647 46.6263Z" fill="#105293"/>
<path d="M60.7053 46.2212C59.9341 47.2358 59.4978 47.8954 59.508 48.0273C59.5486 48.2708 62.4302 49.8942 62.8462 49.8942C63.0694 49.9044 63.2926 49.671 64.2972 48.3418C64.9465 47.4895 65.4742 46.6981 65.4742 46.5864C65.4742 46.4342 65.0987 46.1806 63.8507 45.5109C62.9578 45.0239 62.1664 44.6282 62.0852 44.6282C61.9939 44.6282 61.3851 45.3486 60.7053 46.2212ZM63.6275 45.653C64.4494 46.0994 65.1596 46.5154 65.2103 46.556C65.3321 46.6778 63.0694 49.6507 62.8563 49.6507C62.5722 49.6507 59.6805 48.0577 59.7312 47.9258C59.7819 47.7736 62.0446 44.8311 62.1055 44.8311C62.1258 44.8311 62.8158 45.1964 63.6275 45.653Z" fill="#105293"/>
<path d="M66.7013 47.996C66.5288 48.2294 66.3867 48.4526 66.3867 48.4831C66.3867 48.5541 67.4927 49.1527 73.0226 52.1054C75.2548 53.2925 77.1421 54.2666 77.2029 54.2666C77.345 54.2666 77.8523 53.6578 77.8523 53.4853C77.8523 53.3737 77.5073 53.1809 71.5615 50.0051C69.1364 48.7063 67.1173 47.6308 67.0767 47.6105C67.0462 47.5902 66.8738 47.7627 66.7013 47.996ZM70.0699 49.4673C71.7035 50.3399 74.0677 51.6082 75.336 52.288L77.6392 53.5158L77.4059 53.7999L77.1826 54.084L76.1781 53.5259C75.3157 53.0592 73.1748 51.9126 67.7362 49.0208C67.1579 48.7164 66.6911 48.4425 66.6911 48.4222C66.6911 48.3512 67.0158 47.8743 67.0564 47.8743C67.0868 47.8743 68.4363 48.5845 70.0699 49.4673Z" fill="#105293"/>
<path d="M65.2394 49.9246C65.0771 50.1478 64.9858 50.371 65.0365 50.4218C65.0771 50.4624 66.1932 51.0813 67.5021 51.7814C68.811 52.4917 70.059 53.1613 70.262 53.2831C70.5562 53.4353 70.6678 53.4657 70.7794 53.3744C70.9519 53.2324 71.3172 52.5627 71.2563 52.512C71.1143 52.4003 65.6757 49.4984 65.6047 49.4984C65.5641 49.5086 65.3916 49.6912 65.2394 49.9246ZM67.7355 50.8581C68.811 51.4364 69.988 52.0757 70.3634 52.2887L71.0432 52.6642L70.8302 52.9584C70.6272 53.2222 70.5866 53.2425 70.404 53.1106C70.2822 53.0396 69.1661 52.4308 67.908 51.751C66.6498 51.0711 65.5337 50.4522 65.4221 50.371C65.2293 50.229 65.2293 50.2188 65.4119 50.0159C65.5235 49.8941 65.6453 49.8028 65.696 49.8028C65.7467 49.8028 66.6701 50.2797 67.7355 50.8581Z" fill="#105293"/>
<path d="M58.006 49.8839C57.8538 49.9752 55.5303 53.0597 55.5303 53.1612C55.5303 53.3236 55.855 53.5468 57.2856 54.3078C58.1785 54.7745 58.8583 55.0789 59.0004 55.0586C59.1526 55.0383 59.5382 54.6223 60.1672 53.8106C61.5066 52.0755 61.6283 51.8827 61.5573 51.7001C61.4964 51.5378 58.422 49.8027 58.209 49.8027C58.1582 49.8027 58.0669 49.8433 58.006 49.8839ZM60.7862 51.4059C61.0703 51.5479 61.3138 51.7204 61.3138 51.7914C61.3138 51.9639 59.0714 54.876 58.9395 54.876C58.7569 54.8658 55.8955 53.283 55.855 53.1612C55.8245 53.0597 56.4536 52.177 57.6408 50.6855L58.1785 49.9955L59.2135 50.5637C59.7817 50.8782 60.4919 51.2537 60.7862 51.4059Z" fill="#105293"/>
<path d="M62.8154 53.1201C62.653 53.323 62.5312 53.5361 62.5312 53.597C62.5312 53.6579 63.8909 54.4392 65.5549 55.3321C67.2088 56.2148 69.6135 57.5136 70.8819 58.1934C72.1502 58.8833 73.2359 59.4414 73.2866 59.4414C73.3272 59.4414 73.5098 59.2486 73.6823 59.0153L73.9969 58.5891L73.7229 58.4166C73.1953 58.1021 63.4241 52.8563 63.2517 52.8056C63.1502 52.7751 62.9878 52.8867 62.8154 53.1201ZM67.5132 55.3118C69.8266 56.5598 72.1603 57.818 72.6981 58.1122L73.6925 58.6398L73.4692 58.9341L73.2562 59.2283L72.8401 58.9848C72.6068 58.8529 70.892 57.9296 69.025 56.9251C63.1705 53.7898 62.8356 53.6071 62.8356 53.5158C62.8356 53.4042 63.14 53.0491 63.2415 53.0491C63.2719 53.0491 65.1998 54.0637 67.5132 55.3118Z" fill="#105293"/>
<path d="M61.3447 55.0278C61.2128 55.2205 61.1113 55.4235 61.1113 55.4742C61.1113 55.5249 61.4462 55.7482 61.852 55.9714C62.2477 56.1946 63.4755 56.8541 64.5612 57.4528C65.657 58.0413 66.6108 58.5283 66.6919 58.5283C66.7731 58.5283 66.976 58.3457 67.1282 58.1225L67.4123 57.7267L67.179 57.5745C66.5702 57.1788 61.852 54.6726 61.7201 54.6726C61.6389 54.6726 61.4665 54.835 61.3447 55.0278ZM64.4901 56.3468L67.0876 57.7572L66.9152 58.0413C66.8238 58.1935 66.7224 58.3254 66.6818 58.3254C66.6513 58.3254 65.8498 57.8992 64.9061 57.3818C63.9625 56.8643 62.7754 56.2149 62.2579 55.941L61.3244 55.4438L61.4969 55.1597C61.5882 54.9973 61.7201 54.8857 61.781 54.8959C61.8419 54.9161 63.0595 55.5655 64.4901 56.3468Z" fill="#105293"/>
<path d="M54.0491 55.0587C53.7751 55.2312 51.6748 58.0824 51.6748 58.2853C51.6748 58.4578 51.9893 58.6709 53.2983 59.3812C54.3941 59.9798 54.9826 60.2538 55.1145 60.203C55.3073 60.1422 57.5598 57.291 57.6308 57.0069C57.6917 56.7735 57.4685 56.6213 55.8653 55.7589C54.4144 54.9776 54.2622 54.9167 54.0491 55.0587ZM55.8247 56.0125C56.6669 56.4691 57.3569 56.8953 57.3569 56.9561C57.3569 57.0475 55.4189 59.6856 55.1246 59.99C55.0435 60.061 52.2024 58.5796 51.9386 58.3259C51.8473 58.2346 54.0795 55.1805 54.2317 55.1805C54.2622 55.1805 54.9826 55.5559 55.8247 56.0125Z" fill="#105293"/>
<path d="M58.828 58.3254C58.6555 58.5689 58.5845 58.7718 58.6352 58.8225C58.7265 58.9037 69.3094 64.6162 69.3702 64.6162C69.3804 64.6162 69.5427 64.4133 69.7152 64.1698L70.0399 63.7233L69.6036 63.4697C69.218 63.2464 63.4954 60.1416 60.5123 58.5384C59.8731 58.2036 59.2947 57.9195 59.2338 57.9195C59.1628 57.9195 58.9802 58.1021 58.828 58.3254ZM61.0399 59.0762C62.0038 59.5937 64.3375 60.862 66.2349 61.8766C68.1324 62.9014 69.7051 63.7538 69.7152 63.7639C69.7659 63.8045 69.3905 64.3017 69.3094 64.3118C69.2383 64.3118 59.0715 58.8428 58.9497 58.7312C58.8686 58.6602 59.1425 58.1224 59.2541 58.1224C59.2744 58.1224 60.076 58.5486 61.0399 59.0762Z" fill="#105293"/>
<path d="M57.4181 60.1315C57.2761 60.3446 57.1543 60.5577 57.1543 60.6186C57.1543 60.7099 62.6131 63.7031 62.7856 63.7031C62.877 63.7031 63.4452 62.9726 63.4452 62.861C63.4452 62.7899 57.8646 59.746 57.7327 59.746C57.7124 59.746 57.5703 59.9185 57.4181 60.1315ZM59.4271 60.8722C62.9175 62.7493 63.1509 62.8914 63.0393 63.074C62.7755 63.5408 62.8161 63.5408 61.5072 62.8204C60.8172 62.4348 59.5996 61.7651 58.798 61.3288L57.3471 60.5374L57.5703 60.2939C57.6921 60.162 57.824 60.0504 57.8443 60.0504C57.8747 60.0504 58.585 60.4258 59.4271 60.8722Z" fill="#105293"/>
<path d="M50.0111 60.2837C49.8791 60.4055 49.3008 61.1157 48.7326 61.8666C48.0325 62.7798 47.7179 63.2871 47.7382 63.4393C47.7788 63.7133 50.6706 65.3367 51.0663 65.2961C51.462 65.2657 53.7754 62.2725 53.6537 61.9579C53.6131 61.8666 52.9637 61.4607 52.2129 61.0447C50.2343 59.9793 50.3154 60.0098 50.0111 60.2837ZM51.878 61.136C52.6694 61.5622 53.3391 61.9681 53.3696 62.0391C53.4203 62.171 51.32 65.012 51.1069 65.0932C50.975 65.1439 47.9209 63.5002 47.9209 63.3683C47.9209 63.2059 50.1734 60.3548 50.3053 60.3548C50.3763 60.3548 51.0866 60.6997 51.878 61.136Z" fill="#105293"/>
<path d="M54.9213 63.3985C54.7184 63.6522 54.6271 63.8551 54.6778 63.9059C54.7691 63.9972 55.9969 64.6668 62.8762 68.4008L65.5042 69.8213L65.7477 69.527C66.2652 68.898 66.2855 68.9487 64.9867 68.2384C61.6891 66.4323 55.52 63.084 55.3982 63.0332C55.3069 63.0028 55.1243 63.1449 54.9213 63.3985ZM60.5933 66.0874C63.4039 67.6195 65.7477 68.8777 65.7984 68.8777C65.9304 68.8777 65.8898 69.0096 65.6665 69.2835L65.4535 69.5372L64.5301 69.04C61.9326 67.6499 55.0634 63.8856 55.0025 63.8247C54.9011 63.7232 55.1953 63.2971 55.3576 63.2971C55.4287 63.2971 57.7827 64.5552 60.5933 66.0874Z" fill="#105293"/>
<path d="M53.439 65.3266C53.2767 65.5702 53.2056 65.7731 53.2564 65.8238C53.3375 65.8948 55.103 66.8689 58.1166 68.4924C58.5123 68.7054 58.8776 68.8779 58.9384 68.8779C59.0602 68.8779 59.6386 68.0764 59.5675 68.0053C59.3646 67.8125 53.9869 64.9208 53.8246 64.9208C53.7536 64.9208 53.5811 65.1034 53.439 65.3266ZM56.6453 66.6254C58.0658 67.4067 59.2327 68.0865 59.2327 68.1372C59.2327 68.1778 59.1617 68.3199 59.0703 68.4416L58.908 68.675L57.6498 67.985C56.9599 67.6096 55.722 66.9399 54.9001 66.4935L53.4187 65.6919L53.6217 65.3977C53.7333 65.2455 53.8753 65.1339 53.9463 65.1643C54.0072 65.1846 55.2248 65.8441 56.6453 66.6254Z" fill="#105293"/>
<path d="M66.6609 17.1001C66.6203 17.1305 66.5898 17.9929 66.5898 18.9975C66.5898 20.4687 66.6203 20.8847 66.742 21.0572C66.8232 21.179 67.6146 21.6457 68.4872 22.1023C69.6845 22.7314 70.1208 22.914 70.2325 22.843C70.3745 22.7517 70.3847 22.4676 70.3542 20.8238C70.3441 19.7483 70.2832 18.8554 70.2223 18.7844C70.0904 18.6119 67.0566 17.029 66.8739 17.029C66.7928 17.029 66.6913 17.0595 66.6609 17.1001ZM70.0194 18.8858C70.1716 19.0076 70.202 22.6096 70.0397 22.6096C69.8875 22.6096 66.9551 21.0674 66.8739 20.9456C66.7826 20.8137 66.7623 17.3943 66.8537 17.303C66.9145 17.2421 69.6947 18.6423 70.0194 18.8858Z" fill="#105293"/>
<path d="M71.9372 19.9416C71.8967 19.972 71.8662 20.2054 71.8662 20.4489C71.8662 20.8446 71.9068 20.9055 72.2518 21.1186C73.0026 21.5955 82.5201 26.4658 82.6824 26.4658C82.8245 26.4658 82.8448 26.3948 82.7839 26.0803C82.7535 25.8773 82.723 25.6541 82.723 25.5831C82.723 25.4309 82.2664 25.1874 78.5629 23.2697C76.9699 22.4478 74.8493 21.3418 73.8346 20.8243C72.8301 20.2967 71.9677 19.901 71.9372 19.9416ZM74.6565 21.4839C78.1266 23.2798 81.7997 25.1975 82.1853 25.4106C82.4389 25.5526 82.5201 25.6744 82.5201 25.8773C82.5201 26.0397 82.4896 26.1614 82.4592 26.1614C82.4085 26.1614 77.3251 23.5436 73.3882 21.494C72.1808 20.8649 72.1199 20.8142 72.0894 20.4895C72.0691 20.3069 72.0894 20.1648 72.1402 20.1851C72.1909 20.2054 73.3172 20.7939 74.6565 21.4839Z" fill="#105293"/>
<path d="M71.8662 22.7012C71.8662 23.1273 71.9068 23.2389 72.0996 23.3607C72.5156 23.6245 77.457 26.1611 77.5584 26.1611C77.6092 26.1611 77.6497 25.9176 77.6497 25.6234V25.0957L74.9 23.6752C73.3983 22.8939 72.0894 22.2446 72.0184 22.2243C71.8967 22.1938 71.8662 22.3054 71.8662 22.7012ZM74.8594 23.9086C77.3352 25.1871 77.3961 25.2277 77.4265 25.5523C77.457 25.7959 77.4265 25.8669 77.3251 25.8364C77.254 25.806 76.0466 25.1871 74.6565 24.4565C72.1909 23.178 72.1199 23.1273 72.0894 22.8128C72.059 22.5693 72.0894 22.4982 72.1909 22.5388C72.2619 22.5693 73.4694 23.178 74.8594 23.9086Z" fill="#105293"/>
<path d="M66.7022 23.3915C66.5601 23.6756 66.5703 26.9834 66.7123 27.2574C66.8037 27.4197 67.4327 27.8053 68.5489 28.3735C69.9694 29.1142 70.2636 29.2359 70.3448 29.104C70.497 28.8707 70.4767 25.3295 70.3245 25.1266C70.2129 24.9845 67.0066 23.219 66.8544 23.219C66.8239 23.219 66.7631 23.3002 66.7022 23.3915ZM68.5286 24.3352C69.3809 24.7816 70.1216 25.2078 70.1622 25.2788C70.2941 25.4817 70.2636 28.9011 70.1317 28.9011C70.0708 28.9011 69.32 28.5358 68.4575 28.0792L66.895 27.2574V25.3904C66.895 24.3656 66.9153 23.5234 66.9254 23.5234C66.9457 23.5234 67.6661 23.8887 68.5286 24.3352Z" fill="#105293"/>
<path d="M71.9877 26.7288L72.0181 27.297L77.2943 30.0264C80.1962 31.5281 82.6314 32.7559 82.7024 32.7559C82.7937 32.7559 82.8242 32.6138 82.8039 32.2384L82.7734 31.7209L81.0993 30.8382C78.5423 29.4887 72.079 26.1606 72.0181 26.1606C71.9877 26.1606 71.9674 26.4143 71.9877 26.7288ZM79.3033 30.1482L82.6212 31.8731V32.2181V32.5631L82.1951 32.3196C81.8298 32.1065 76.9087 29.5597 73.1647 27.6319C72.2109 27.1448 72.1703 27.1144 72.1703 26.7897V26.4447L74.0778 27.4289C75.1229 27.9768 77.4668 29.1944 79.3033 30.1482Z" fill="#105293"/>
<path d="M71.9678 29.0226V29.5604L74.7581 31.0012C76.2902 31.8028 77.589 32.4521 77.6498 32.4521C77.7209 32.4521 77.7513 32.2594 77.731 31.9144L77.7006 31.3868L76.483 30.7475C74.1899 29.5401 72.12 28.495 72.0388 28.495C71.9982 28.495 71.9678 28.7385 71.9678 29.0226ZM73.6724 29.5198C77.7817 31.6709 77.5484 31.5288 77.5484 31.8636C77.5484 32.2492 77.7513 32.3202 74.8798 30.8287C73.6014 30.159 72.465 29.5908 72.3635 29.5604C72.2214 29.5096 72.1707 29.398 72.1707 29.1444C72.1707 28.9516 72.2011 28.7994 72.2316 28.7994C72.262 28.7994 72.9114 29.1241 73.6724 29.5198Z" fill="#105293"/>
<path d="M66.9544 32.9492C66.8733 33.0811 66.8733 36.4295 66.9544 36.7542C67.0052 36.9673 67.2994 37.1601 68.6591 37.85C69.552 38.3168 70.3434 38.7023 70.4043 38.7226C70.4651 38.7429 70.5768 38.682 70.6478 38.6009C70.7391 38.4791 70.7492 38.0327 70.6884 36.5411L70.597 34.6437L69.9883 34.2987C68.5982 33.5174 67.2994 32.8579 67.1574 32.8579C67.0762 32.8579 66.9849 32.8985 66.9544 32.9492ZM67.3603 33.1522C67.411 33.2029 68.1111 33.5885 68.9229 34.0146L70.3941 34.7756L70.4246 36.6426L70.4448 38.5197L68.9533 37.7486C68.1213 37.3326 67.3704 36.9165 67.2791 36.8354C67.1269 36.7035 67.0965 36.4599 67.1066 34.8771C67.1066 33.8726 67.1371 33.0609 67.1777 33.0609C67.2284 33.0609 67.2994 33.1014 67.3603 33.1522Z" fill="#105293"/>
<path d="M72.1709 36.2366V36.7946L76.6151 39.1283C81.5463 41.7157 82.8755 42.3955 83.0277 42.3955C83.0784 42.3955 83.1292 42.1723 83.1292 41.8983V41.4011L81.4347 40.488C78.8676 39.1283 72.5463 35.8205 72.3535 35.7495C72.1912 35.6886 72.1709 35.7495 72.1709 36.2366ZM72.6376 36.0945C72.6884 36.1452 74.738 37.2411 77.1934 38.5195C83.4437 41.7867 82.9262 41.4823 82.9262 41.807C82.9262 41.9694 82.8857 42.0911 82.8451 42.0911C82.7639 42.0911 79.0401 40.1734 74.5858 37.8194C72.4043 36.6729 72.3738 36.6627 72.3738 36.3279C72.3738 36.0032 72.455 35.922 72.6376 36.0945Z" fill="#105293"/>
<path d="M72.2306 38.1138C72.2001 38.1645 72.2103 38.4182 72.2509 38.6921L72.3219 39.1791L75.1122 40.6301L77.9025 42.0811L77.9329 41.5636C77.9532 41.2795 77.9329 41.0157 77.8822 40.9649C77.7909 40.8736 72.4132 38.0326 72.3321 38.0326C72.3016 38.0326 72.261 38.0732 72.2306 38.1138ZM75.1122 39.7271L77.7503 41.1171V41.4621C77.7503 41.797 77.7402 41.8071 77.5271 41.665C77.3952 41.5839 76.208 40.9548 74.889 40.275C73.0626 39.3313 72.4741 38.9864 72.4741 38.8443C72.4741 38.7428 72.4437 38.5906 72.4132 38.4993C72.3828 38.408 72.3726 38.337 72.4132 38.337C72.4437 38.337 73.6613 38.9661 75.1122 39.7271Z" fill="#105293"/>
<path d="M34.3753 17.1912C34.1014 17.2723 33.7564 17.3535 33.6143 17.3738C33.1679 17.4245 32.7722 17.7086 31.9604 18.5508C30.8646 19.6872 30.6211 20.225 30.6211 21.4933C30.6211 22.3963 30.6414 22.4978 30.9661 23.0964C31.585 24.243 32.5591 24.8417 33.9289 24.9228C36.1611 25.0547 38.1803 23.6951 38.8905 21.5846C39.4587 19.9307 38.6267 18.1145 36.9728 17.3535C36.2626 17.0288 35.1262 16.9578 34.3753 17.1912ZM36.8917 17.4753C37.5715 17.7492 38.0484 18.216 38.3934 18.9161C38.6775 19.4944 38.7079 19.6365 38.6673 20.2148C38.4339 23.1066 34.771 25.1765 32.1938 23.8777C31.1893 23.3704 30.5805 22.2543 30.7023 21.1585C30.7834 20.4888 31.2502 19.5249 31.7677 18.9567C32.2851 18.3986 32.3054 18.5305 31.8387 19.3016C31.1589 20.4279 31.0168 21.3005 31.3516 22.234C31.5343 22.7413 32.2547 23.5226 32.5489 23.5226C32.691 23.5226 33.2085 22.8225 33.2085 22.6297C33.2085 22.579 33.036 22.4268 32.833 22.2847L32.4576 22.0412L32.1634 22.376C32.001 22.5587 31.8285 22.7109 31.7879 22.7109C31.6763 22.7109 31.3719 21.7977 31.443 21.6861C31.4734 21.6353 31.6763 21.5643 31.8996 21.5339C32.1532 21.4933 32.275 21.4324 32.2141 21.3715C32.1532 21.3107 31.9807 21.3107 31.7474 21.3715L31.3821 21.473V21.0367C31.3821 20.5497 31.6155 19.8191 31.8488 19.5553C32.001 19.3828 32.0518 19.4437 32.4982 20.3772C33.0563 21.5034 33.2795 21.6962 34.0709 21.6962C34.5478 21.6962 35.0247 21.5136 35.39 21.1889C35.5828 21.0164 35.6335 21.0266 36.5873 21.4121C37.8657 21.9296 38.1397 21.889 37.2874 21.3107C36.3437 20.6613 35.948 20.2859 35.948 20.0322C35.948 19.7684 35.0754 18.0435 34.8522 17.871C34.7203 17.7594 34.7203 17.7391 34.8725 17.6782C35.0957 17.597 36.0089 17.6883 36.3945 17.8304C36.6684 17.942 36.6786 17.9521 36.5162 18.1754C36.2017 18.6015 36.2017 18.6827 36.5467 18.9668L36.8815 19.2408L37.328 18.9769C37.5715 18.8248 37.7744 18.6523 37.7744 18.5812C37.7744 18.3986 37.0337 17.8608 36.5365 17.6782C36.0901 17.5158 34.7913 17.4651 34.2231 17.5869C34.0405 17.6275 33.9187 17.6173 33.9187 17.5564C33.9187 17.455 34.6391 17.2723 35.2378 17.2013C35.6436 17.1607 36.4757 17.2926 36.8917 17.4753ZM33.4621 17.6376C33.178 17.7594 33.0867 17.7594 33.1577 17.6376C33.1882 17.5767 33.3201 17.5361 33.4418 17.5463C33.6549 17.5463 33.6549 17.5564 33.4621 17.6376ZM34.2028 17.9217C34.4362 17.9521 34.7304 18.3479 34.7304 18.6218C34.7304 19.5857 33.381 20.2554 32.7519 19.6162C32.5997 19.4741 32.4982 19.2509 32.4982 19.0886C32.4982 18.7233 32.833 18.1855 33.0969 18.0942C33.2186 18.0638 33.2896 18.0029 33.2693 17.9623C33.2288 17.9014 33.8375 17.8811 34.2028 17.9217ZM35.0348 18.703C35.0348 19.4031 34.3144 20.0829 33.4824 20.1539C33.0157 20.1945 32.9041 20.1641 32.6301 19.9307C32.4576 19.7887 32.2851 19.5553 32.2547 19.4133C32.1634 19.048 32.3562 18.4189 32.62 18.1855C32.833 18.0029 32.833 18.0029 32.5997 18.3174C32.0315 19.0987 32.4373 19.9713 33.3708 19.9713C34.4362 19.9713 35.1769 19.048 34.7812 18.2261L34.6188 17.8913L34.8319 18.1348C34.9435 18.2667 35.0348 18.5102 35.0348 18.703ZM37.2772 18.2565C37.4396 18.3682 37.5715 18.5001 37.5715 18.5508C37.5715 18.5914 37.4193 18.7233 37.2366 18.8349C36.912 19.0277 36.8815 19.0277 36.6583 18.8552L36.4249 18.6827L36.6684 18.358C36.7902 18.1855 36.9221 18.0435 36.9424 18.0435C36.9627 18.0435 37.1149 18.1348 37.2772 18.2565ZM35.6538 20.4583C35.1262 21.4933 33.7767 21.8992 33.1882 21.2092C32.9852 20.9758 32.5794 20.2554 32.6301 20.2148C32.6403 20.1945 32.8229 20.225 33.0157 20.2859C33.7462 20.5091 34.7304 20.0322 35.0551 19.2813L35.2682 18.8045L35.5625 19.4335L35.8567 20.0626L35.6538 20.4583ZM38.8905 21.0063C38.8195 21.3512 38.6572 21.8586 38.5151 22.1427C38.2107 22.7515 37.2671 23.756 36.6989 24.0908C35.0957 25.0344 33.036 25.004 31.8894 24.0299L31.5343 23.7255L32.1634 24.0502C32.9142 24.4256 33.9999 24.5373 34.9638 24.3445C36.8206 23.9488 38.5658 22.234 38.7586 20.5903C38.7992 20.2047 38.8398 20.0931 38.9108 20.2148C38.9616 20.3163 38.9514 20.6207 38.8905 21.0063ZM36.9627 21.3512C36.9627 21.3918 36.3133 21.1179 35.9176 20.9149C35.6842 20.8033 35.6538 20.7424 35.7451 20.6308C35.8466 20.5091 35.9582 20.5598 36.4148 20.9048C36.7192 21.128 36.9627 21.3309 36.9627 21.3512ZM32.9852 22.7007C32.9649 22.7312 32.8838 22.8834 32.8127 23.0356C32.6403 23.3806 32.5286 23.3907 32.1532 23.0863L31.859 22.8529L32.1837 22.579C32.4982 22.3253 32.5185 22.3152 32.762 22.4775C32.9041 22.5587 32.9954 22.6703 32.9852 22.7007Z" fill="#105293"/>
<path d="M41.7916 20.925C41.3655 21.4526 41.0205 21.9295 41.0205 21.9802C41.0205 22.0411 41.0915 22.102 41.1727 22.1324C41.264 22.173 41.4467 22.0411 41.6597 21.7773L42.0047 21.3714L42.441 21.5947C42.8266 21.7874 42.8875 21.7976 43.0194 21.6657C43.1614 21.5338 43.131 21.483 42.7657 21.2192C42.4004 20.9554 42.3801 20.9047 42.5019 20.7322C42.6338 20.5496 42.6541 20.5496 43.1411 20.7728C43.6383 21.0163 43.8615 20.996 43.8615 20.7322C43.8615 20.6104 42.7962 19.9712 42.6034 19.9712C42.5831 19.9712 42.2178 20.3974 41.7916 20.925ZM43.1614 20.4379C43.4455 20.58 43.6586 20.7119 43.6282 20.7423C43.6079 20.7728 43.3644 20.6916 43.1107 20.5597L42.6338 20.3365L42.3903 20.6307C42.2584 20.8032 42.1468 20.9554 42.1366 20.9859C42.1366 21.0163 42.299 21.1279 42.4918 21.2294C42.6845 21.341 42.8469 21.4627 42.8469 21.5135C42.8469 21.6352 42.7962 21.6149 42.3801 21.3714L42.0047 21.1482L41.609 21.6048C40.9596 22.3556 41.1829 21.9295 41.9134 21.0264C42.2888 20.5597 42.6034 20.1741 42.6237 20.1741C42.6338 20.1741 42.8773 20.2959 43.1614 20.4379Z" fill="#105293"/>
<path d="M43.9425 21.0671C43.8004 21.2193 43.425 21.6759 43.1003 22.0919C42.6437 22.6702 42.5423 22.8529 42.6539 22.9239C42.7351 22.9746 42.8467 22.9949 42.8974 22.9848C43.0395 22.934 44.46 21.1584 44.4701 21.0265C44.4701 20.783 44.1759 20.8033 43.9425 21.0671ZM43.8715 21.615C43.2119 22.4571 42.8467 22.863 42.8467 22.7615C42.8568 22.5891 44.1759 20.9656 44.257 21.0366C44.2773 21.0671 44.1048 21.3207 43.8715 21.615Z" fill="#105293"/>
<path d="M44.6027 21.798L44.5215 22.4271L43.9127 22.6807C43.2227 22.975 43.0299 23.0967 43.1111 23.2286C43.2024 23.3808 43.6489 23.3301 44.0649 23.117L44.4606 22.9141L44.4403 23.4417C44.42 23.9186 44.4403 23.9795 44.623 23.9795C44.7853 23.9795 44.836 23.8679 44.9274 23.3301C45.039 22.6401 45.039 22.6401 45.8202 22.3155C46.0841 22.2038 46.2971 22.0719 46.2971 22.0111C46.2971 21.8284 45.9217 21.798 45.5564 21.9502C45.3535 22.0314 45.1709 22.1024 45.1404 22.1024C45.11 22.1024 45.0796 21.9096 45.0593 21.6762C45.039 21.3718 44.9781 21.2298 44.8563 21.2095C44.7244 21.1892 44.6737 21.3008 44.6027 21.798ZM44.9172 21.8994C44.8766 22.1734 44.8766 22.4068 44.8969 22.4068C44.9274 22.4068 45.0796 22.3459 45.2419 22.2647C45.4042 22.1836 45.6478 22.0922 45.7898 22.0618C45.9319 22.0314 45.7797 22.1227 45.455 22.2647C45.0593 22.4474 44.8563 22.5996 44.836 22.7518C44.8056 22.8634 44.7447 23.1678 44.6838 23.4214L44.5824 23.878L44.623 23.2895C44.6534 22.975 44.6534 22.7112 44.623 22.7112C44.6027 22.7112 44.3186 22.8228 44.004 22.9648C43.6793 23.1069 43.4054 23.1982 43.3851 23.1779C43.3546 23.1576 43.6184 23.0054 43.9634 22.8532C44.6128 22.559 44.7752 22.356 44.7752 21.8081C44.7752 21.5545 44.8462 21.3921 44.9476 21.3921C44.9679 21.3921 44.9578 21.6153 44.9172 21.8994Z" fill="#105293"/>
<path d="M46.2258 22.4677C46.0736 22.6706 45.7185 23.1069 45.4547 23.4519C45.1909 23.7868 44.9879 24.1115 45.0082 24.1622C45.0184 24.2129 45.3431 24.426 45.7083 24.6289C46.3273 24.9638 46.3983 24.9841 46.5505 24.8319C46.7027 24.6797 46.6723 24.6391 46.1446 24.3245L45.5866 23.9897L45.8301 23.7462L46.0635 23.5027L46.4896 23.7766C46.8346 23.9897 46.9462 24.0201 47.068 23.9187C47.2912 23.736 47.2405 23.6447 46.7534 23.3302C46.3171 23.0562 46.307 23.0359 46.4998 22.8634C46.6824 22.7011 46.7129 22.7011 47.21 22.9852C47.6463 23.2287 47.7377 23.249 47.8188 23.1171C47.8696 23.0359 47.9203 22.9345 47.9203 22.8939C47.9203 22.833 46.6723 22.1024 46.5607 22.1024C46.5302 22.1024 46.378 22.2648 46.2258 22.4677ZM47.1897 22.6199C47.8899 23.0156 47.8087 23.1272 47.0984 22.7518L46.5708 22.4576L46.4085 22.6909C46.3171 22.8228 46.0432 23.178 45.7997 23.4824C45.5561 23.7868 45.3735 24.0607 45.3938 24.0709C45.4141 24.0912 45.6475 24.2231 45.9214 24.3753C46.1852 24.5376 46.3983 24.7 46.3983 24.7507C46.3983 24.8522 45.5561 24.4057 45.3025 24.1825C45.201 24.0912 45.2822 23.9288 45.7388 23.3809C46.0432 22.9953 46.3476 22.5996 46.4085 22.4982C46.5404 22.2445 46.5505 22.2546 47.1897 22.6199ZM47.0071 23.7462C47.0071 23.8679 46.9665 23.8476 46.5099 23.594C46.2766 23.4621 46.1244 23.3302 46.1548 23.2896C46.2258 23.2186 47.0071 23.6346 47.0071 23.7462Z" fill="#105293"/>
<path d="M47.4737 24.0307C47.0475 24.5887 46.7127 25.0859 46.7431 25.1265C46.7634 25.1671 47.0069 25.3091 47.2606 25.441C48.0825 25.8571 48.9449 25.4918 49.2899 24.5989C49.4421 24.2133 49.4421 24.1118 49.3204 23.8683C49.2087 23.6248 48.4985 23.0262 48.3158 23.016C48.2854 23.016 47.91 23.4726 47.4737 24.0307ZM49.0667 23.706C49.6349 24.2032 48.7826 25.5019 47.91 25.4715C47.5853 25.4613 47.0069 25.1874 47.0069 25.0352C47.0069 24.9844 47.2302 24.6395 47.5143 24.2742C47.7882 23.9089 48.0723 23.5233 48.1231 23.4117C48.2245 23.2291 48.2448 23.2291 48.5594 23.3813C48.742 23.4726 48.9652 23.6147 49.0667 23.706Z" fill="#105293"/>
<path d="M47.8992 23.959C47.6862 24.2532 47.4223 24.6083 47.3107 24.7605L47.0977 25.0345L47.4021 25.1968C47.8992 25.4505 48.2747 25.3896 48.6602 25.0041C49.2183 24.446 49.2081 23.8778 48.6399 23.5835C48.4776 23.4922 48.3254 23.4212 48.3051 23.4212C48.2848 23.4313 48.1022 23.6647 47.8992 23.959ZM48.7211 23.8676C49.2589 24.446 48.3761 25.3896 47.5745 25.0852C47.4832 25.0548 47.4122 24.9838 47.4122 24.933C47.4122 24.8113 48.3254 23.6241 48.4167 23.6241C48.4573 23.6241 48.5993 23.7357 48.7211 23.8676Z" fill="#105293"/>
<path d="M39.9448 23.2486C39.8231 23.3196 39.0519 24.2125 38.2301 25.2474C37.398 26.2824 36.4138 27.4898 36.0485 27.9363C35.6731 28.3827 35.3383 28.8495 35.2977 28.9814C35.1861 29.3061 35.5006 29.5597 37.0632 30.412C37.814 30.8281 39.8535 31.9543 41.5784 32.9081C43.3135 33.872 46.0733 35.394 47.7171 36.3072C50.6799 37.9509 51.0756 38.1133 51.4104 37.8292C51.7656 37.5451 55.9256 32.2587 55.9865 32.0355C56.017 31.9036 55.9865 31.7108 55.9155 31.6195C55.8445 31.5282 54.1601 30.5642 52.1816 29.4786C46.1139 26.1708 45.008 25.562 42.7453 24.314C41.548 23.6544 40.4826 23.1167 40.3608 23.1167C40.2492 23.1268 40.0666 23.1776 39.9448 23.2486ZM41.8828 24.04C42.6134 24.4357 44.044 25.217 45.079 25.7751C46.1139 26.3433 47.5547 27.1246 48.2751 27.5304C49.0057 27.9363 50.4161 28.7074 51.4206 29.2553C54.7892 31.0716 55.6111 31.5383 55.743 31.7108C55.9256 31.9239 56.1692 32.0456 51.6235 29.5597C45.4037 26.1505 41.132 23.8269 40.7768 23.6646C40.4927 23.5225 40.4014 23.5225 40.1782 23.6341C40.0361 23.7153 39.0824 24.8213 38.0474 26.1099C35.7543 28.9712 35.4499 29.3162 35.4398 29.0828C35.4398 28.9915 35.8659 28.3929 36.3834 27.7638C36.9009 27.1347 37.8648 25.9273 38.5345 25.0953C39.2041 24.2531 39.8231 23.5225 39.9042 23.4515C40.1985 23.208 40.5739 23.3298 41.8828 24.04ZM43.0903 25.0648C51.7351 29.7728 55.6517 31.934 55.7633 32.0355C55.8445 32.1167 55.2357 32.9182 52.9527 35.7491C51.5017 37.5552 51.2379 37.8292 50.964 37.8292C50.8625 37.8292 49.4826 37.1088 47.8997 36.226C46.3169 35.3534 42.9178 33.4662 40.3405 32.0456C37.7633 30.6251 35.6528 29.4278 35.6427 29.3872C35.6427 29.2858 39.3868 24.6285 39.8839 24.1009C40.0869 23.898 40.3405 23.7255 40.442 23.7255C40.5536 23.7255 41.7408 24.3241 43.0903 25.0648Z" fill="#105293"/>
<path d="M50.3039 25.1565C50.101 25.3392 49.8676 25.6131 49.7864 25.7653C49.3197 26.6684 50.0401 27.4395 51.004 27.0742C51.2881 26.9728 51.3591 26.6988 51.1258 26.6075C51.0446 26.5771 50.8823 26.5974 50.7706 26.6684C50.4459 26.8307 50.1517 26.6379 50.1517 26.2524C50.1517 26.0292 50.2532 25.8364 50.4967 25.5928C51.0142 25.0754 51.5012 25.1464 51.5925 25.7552C51.6128 25.9277 51.6838 26.0089 51.8259 26.0089C51.9882 26.0089 52.039 25.9277 52.0593 25.6334C52.11 25.0957 51.8259 24.842 51.1664 24.842C50.7503 24.842 50.6083 24.8927 50.3039 25.1565ZM51.7244 25.1971C51.9781 25.4508 52.0491 25.6943 51.8868 25.7958C51.836 25.8262 51.7751 25.7146 51.7346 25.5523C51.6027 24.8623 50.6895 24.9841 50.1821 25.745C49.7357 26.4046 50.0096 26.9525 50.7199 26.8409C51.004 26.7901 51.0649 26.8104 50.9837 26.8916C50.8214 27.054 50.2126 27.0438 50.0096 26.8815C49.7661 26.6785 49.7966 25.948 50.0705 25.603C50.588 24.9435 51.2983 24.771 51.7244 25.1971Z" fill="#105293"/>
<path d="M52.587 25.8666C51.6332 26.2623 51.1361 27.5103 51.755 27.9872C52.5261 28.6062 54.0075 27.7133 54.0075 26.6276C54.0075 26.0391 53.206 25.6129 52.587 25.8666ZM53.6017 26.1608C53.9771 26.5363 53.7945 27.2161 53.1958 27.7234C53.0132 27.8655 52.7595 28.0177 52.6276 28.0481C52.2826 28.1394 51.826 27.9263 51.684 27.6118C51.5825 27.3886 51.6028 27.277 51.7956 26.8812C52.2015 26.0594 53.1349 25.6941 53.6017 26.1608Z" fill="#105293"/>
<path d="M52.5059 26.2625C52.1407 26.4858 51.7754 27.0134 51.7754 27.3381C51.7754 27.8353 52.4451 28.0382 52.993 27.7237C53.5815 27.3685 53.8047 26.5162 53.3785 26.222C53.0843 26.0089 52.9118 26.019 52.5059 26.2625ZM53.3075 26.364C53.7337 26.5974 53.3785 27.3685 52.719 27.6425C51.9479 27.9672 51.6739 27.2265 52.3436 26.6075C52.719 26.2524 52.9727 26.1915 53.3075 26.364Z" fill="#105293"/>
<path d="M54.3223 27.0335C54.028 27.4089 54.0585 27.7437 54.4136 28.1598C54.6673 28.4439 54.7079 28.5453 54.6064 28.6569C54.4643 28.8294 54.0889 28.8396 53.9266 28.6772C53.8555 28.6062 53.8048 28.454 53.8048 28.3221C53.8048 28.0481 53.5207 27.8959 53.3888 28.0989C53.0134 28.6975 53.7845 29.3976 54.5861 29.1846C55.2558 29.0121 55.3877 28.3322 54.8702 27.8452C54.5151 27.5205 54.5354 27.277 54.9108 27.277C55.1442 27.277 55.2253 27.3379 55.3167 27.5915C55.4587 28.0076 55.7935 27.967 55.7631 27.5307C55.7124 26.8407 54.7383 26.5059 54.3223 27.0335ZM55.4891 27.2263C55.5805 27.3582 55.6312 27.5307 55.6109 27.6017C55.5805 27.6727 55.4993 27.6017 55.4181 27.4292C55.2558 27.0944 54.8195 26.9625 54.5557 27.1857C54.3426 27.3683 54.3832 27.5713 54.718 27.9568C55.0833 28.3728 55.0934 28.5352 54.7687 28.8497C54.302 29.3266 53.5004 29.0831 53.5106 28.4641V28.1395L53.6729 28.525C53.9063 29.0932 54.444 29.1643 54.7586 28.6671C54.8398 28.5453 54.8296 28.4439 54.7383 28.3119C54.2107 27.5814 54.1802 27.4393 54.444 27.0944C54.4948 27.0335 54.718 26.9726 54.9311 26.9726C55.2355 26.9726 55.3572 27.0335 55.4891 27.2263Z" fill="#105293"/>
<path d="M56.0881 27.6525C56.0475 27.7742 56.0982 27.896 56.2504 28.0177C56.5041 28.2207 56.5853 28.0583 55.6518 29.2455C55.2256 29.7731 55.1749 30.0166 55.4691 30.0166C55.5503 30.0166 55.8953 29.6513 56.2504 29.2049C56.7679 28.5656 56.9404 28.4033 57.1027 28.454C57.4883 28.5555 57.5999 28.5454 57.6405 28.383C57.6608 28.2612 57.468 28.0989 57.0114 27.8452C56.2707 27.4292 56.1895 27.4089 56.0881 27.6525ZM56.9099 27.9974C57.2143 28.1699 57.4477 28.3323 57.4173 28.3627C57.397 28.3932 57.2854 28.3627 57.1738 28.3018C57.052 28.241 56.9404 28.1902 56.9201 28.1902C56.8998 28.1902 56.5853 28.5555 56.2301 29.0019C55.875 29.4484 55.5402 29.8137 55.4996 29.8137C55.388 29.8137 55.5706 29.5397 56.1895 28.799L56.7375 28.1395L56.4635 27.9163C56.0779 27.5916 56.2504 27.6322 56.9099 27.9974Z" fill="#105293"/>
<path d="M57.4684 32.7561C56.8697 32.9692 56.7784 33.0301 56.1493 33.6084C54.3128 35.3232 55.3579 38.1338 57.8337 38.1338C58.8483 38.1338 60.1166 37.5554 60.7559 36.7944C61.1922 36.2871 61.5169 35.5058 61.5169 34.9884C61.5169 34.4404 61.1516 33.6287 60.7457 33.2432C60.005 32.5532 58.615 32.3401 57.4684 32.7561ZM59.6702 32.8069C61.4053 33.3243 61.7097 35.2725 60.2891 36.7031C59.3252 37.667 57.7322 38.012 56.6262 37.4946C55.2159 36.8553 54.9419 35.1913 56.0479 33.9331C56.9915 32.8677 58.3917 32.4314 59.6702 32.8069ZM60.6037 36.7539C60.6037 36.7742 60.4312 36.9162 60.2283 37.0684L59.8427 37.3322L60.1978 37.0278C60.5428 36.7133 60.6037 36.6727 60.6037 36.7539ZM59.792 37.3728C59.792 37.4337 59.2237 37.7279 59.1121 37.7279C59.0715 37.7178 59.1933 37.6366 59.3861 37.525C59.7818 37.3018 59.792 37.3018 59.792 37.3728Z" fill="#105293"/>
<path d="M57.4675 33.7407C57.0718 33.9335 56.7471 34.4104 56.7471 34.796C56.7471 35.212 57.2645 36.1353 57.5892 36.2875C58.1676 36.5716 59.0808 36.1556 59.4156 35.4657C59.649 35.0091 59.5983 34.7453 59.1721 34.2176C58.6445 33.548 58.1473 33.4059 57.4675 33.7407ZM58.7054 33.9944C58.9489 34.2785 58.9184 34.6133 58.6242 34.9786C58.2893 35.3743 57.7922 35.5367 57.3964 35.3946C57.0413 35.2526 56.95 35.1308 56.95 34.725C56.95 34.3698 57.2341 34.0147 57.7008 33.8118C58.0864 33.6393 58.4618 33.7103 58.7054 33.9944ZM59.3852 35.0192C59.3852 35.4048 59.1214 35.7802 58.6648 36.0136C58.1371 36.2774 57.711 36.2672 57.4066 35.9527C57.0515 35.6077 57.0921 35.5367 57.6095 35.5773C58.2995 35.6381 58.7865 35.283 59.0199 34.5423C59.0808 34.3495 59.0909 34.3495 59.233 34.5423C59.3141 34.6438 59.3852 34.867 59.3852 35.0192Z" fill="#105293"/>
</svg>
